#tb 0: 71/1000
0,          0,          0,        1,   921600, 0x713f2da1
0,          1,          1,        1,   921600, 0x9e772ec9
0,          2,          2,        1,   921600, 0x9420310f
0,          3,          3,        1,   921600, 0xd68f294f
0,          4,          4,        1,   921600, 0xe25a1bcf
0,          5,          5,        1,   921600, 0x32f903ec
0,          6,          6,        1,   921600, 0xdb290b1c
0,          7,          7,        1,   921600, 0x0b0d1b0f
0,          8,          8,        1,   921600, 0x58430921
0,          9,          9,        1,   921600, 0xe65dd39e
0,         10,         10,        1,   921600, 0x146b3068
0,         11,         11,        1,   921600, 0x6e1e7f78
0,         12,         12,        1,   921600, 0x0166e01c
0,         13,         13,        1,   921600, 0x83b86b56
0,         14,         14,        1,   921600, 0xd52a1697
0,         15,         15,        1,   921600, 0x5b38adc8
0,         16,         16,        1,   921600, 0x457f6cea
